<?xml version="1.0" encoding="utf-8"?>
<!-- Generator: Adobe Illustrator 22.0.1, SVG Export Plug-In . SVG Version: 6.00 Build 0)  -->
<svg version="1.1" id="Layer_1" xmlns="http://www.w3.org/2000/svg" xmlns:xlink="http://www.w3.org/1999/xlink" x="0px" y="0px"
	 viewBox="0 0 320.3 320.3" style="enable-background:new 0 0 320.3 320.3;" xml:space="preserve">
<g>
	<path d="M0,0v320.3h320.3V0H0z M301.1,301.1H19.2V19.2h281.9V301.1z"/>
	<g>
		<path d="M128.3,100.7v43h-8.8V119c0-0.6,0-1.2,0-1.9c0-0.7,0.1-1.3,0.2-2l-11.4,22.1c-0.4,0.7-0.8,1.2-1.4,1.6s-1.3,0.5-2.1,0.5
			h-1.4c-0.8,0-1.5-0.2-2.1-0.5c-0.6-0.4-1.1-0.9-1.4-1.6L88.6,115c0.1,0.7,0.1,1.4,0.1,2.1s0.1,1.3,0.1,1.9v24.7H80v-43h7.6
			c0.4,0,0.8,0,1.1,0c0.3,0,0.6,0.1,0.9,0.2s0.5,0.3,0.7,0.5s0.4,0.5,0.6,0.9l11.1,21.8c0.4,0.7,0.8,1.5,1.1,2.3
			c0.4,0.8,0.7,1.6,1,2.5c0.3-0.9,0.7-1.7,1-2.5c0.4-0.8,0.8-1.6,1.2-2.4l11-21.7c0.2-0.4,0.4-0.7,0.6-0.9c0.2-0.2,0.4-0.4,0.7-0.5
			c0.3-0.1,0.5-0.2,0.9-0.2c0.3,0,0.7,0,1.1,0C120.6,100.7,128.3,100.7,128.3,100.7z"/>
		<path d="M180.3,133.1c0.2,0,0.5,0,0.7,0.1s0.5,0.2,0.7,0.5l4,4.2c-1.7,2.3-3.9,4-6.5,5.1c-2.6,1.2-5.7,1.7-9.3,1.7
			c-3.3,0-6.2-0.6-8.8-1.7c-2.6-1.1-4.8-2.6-6.6-4.6s-3.2-4.3-4.1-7c-1-2.7-1.4-5.6-1.4-8.8c0-3.2,0.5-6.2,1.6-8.8
			c1-2.7,2.5-5,4.4-7c1.9-1.9,4.2-3.5,6.8-4.5c2.6-1.1,5.5-1.6,8.7-1.6c1.6,0,3.1,0.1,4.6,0.4c1.4,0.3,2.8,0.7,4,1.2
			s2.4,1.1,3.4,1.8c1,0.7,2,1.5,2.8,2.3l-3.4,4.5c-0.2,0.3-0.5,0.5-0.8,0.8c-0.3,0.2-0.7,0.3-1.2,0.3c-0.4,0-0.7-0.1-1-0.2
			c-0.3-0.2-0.6-0.3-1-0.6c-0.4-0.2-0.7-0.5-1.2-0.7c-0.4-0.3-0.9-0.5-1.5-0.7s-1.3-0.4-2-0.6c-0.8-0.2-1.7-0.2-2.7-0.2
			c-1.7,0-3.2,0.3-4.5,0.9c-1.4,0.6-2.5,1.5-3.5,2.7s-1.8,2.6-2.3,4.3c-0.5,1.7-0.8,3.6-0.8,5.8c0,2.2,0.3,4.2,0.9,5.9
			c0.6,1.7,1.4,3.2,2.5,4.3c1,1.2,2.2,2.1,3.6,2.7c1.4,0.6,2.9,0.9,4.4,0.9c0.9,0,1.7,0,2.5-0.1c0.7-0.1,1.4-0.2,2.1-0.4
			c0.6-0.2,1.3-0.5,1.8-0.8c0.6-0.3,1.2-0.8,1.7-1.3c0.2-0.2,0.5-0.4,0.8-0.5C179.7,133.1,180,133.1,180.3,133.1z"/>
		<path d="M234.5,133.1c0.2,0,0.5,0,0.7,0.1s0.5,0.2,0.7,0.5l4,4.2c-1.7,2.3-3.9,4-6.5,5.1c-2.6,1.2-5.7,1.7-9.3,1.7
			c-3.3,0-6.2-0.6-8.8-1.7c-2.6-1.1-4.8-2.6-6.6-4.6s-3.2-4.3-4.1-7c-1-2.7-1.4-5.6-1.4-8.8c0-3.2,0.5-6.2,1.6-8.8
			c1-2.7,2.5-5,4.4-7c1.9-1.9,4.2-3.5,6.8-4.5c2.6-1.1,5.5-1.6,8.7-1.6c1.6,0,3.1,0.1,4.6,0.4c1.4,0.3,2.8,0.7,4,1.2
			s2.4,1.1,3.4,1.8c1,0.7,2,1.5,2.8,2.3L236,111c-0.2,0.3-0.5,0.5-0.8,0.8s-0.7,0.3-1.2,0.3c-0.4,0-0.7-0.1-1-0.2
			c-0.3-0.2-0.6-0.3-1-0.6c-0.4-0.2-0.7-0.5-1.2-0.7c-0.4-0.3-0.9-0.5-1.5-0.7s-1.3-0.4-2-0.6c-0.8-0.2-1.7-0.2-2.7-0.2
			c-1.7,0-3.2,0.3-4.5,0.9c-1.4,0.6-2.5,1.5-3.5,2.7s-1.8,2.6-2.3,4.3c-0.5,1.7-0.8,3.6-0.8,5.8c0,2.2,0.3,4.2,0.9,5.9
			c0.6,1.7,1.4,3.2,2.5,4.3c1,1.2,2.2,2.1,3.6,2.7c1.4,0.6,2.9,0.9,4.4,0.9c0.9,0,1.7,0,2.5-0.1c0.7-0.1,1.4-0.2,2.1-0.4
			c0.6-0.2,1.3-0.5,1.8-0.8c0.6-0.3,1.2-0.8,1.7-1.3c0.2-0.2,0.5-0.4,0.8-0.5C233.9,133.1,234.2,133.1,234.5,133.1z"/>
		<path d="M234.5,207.8c0.2,0,0.5,0,0.7,0.1s0.5,0.2,0.7,0.5l4,4.2c-1.7,2.3-3.9,4-6.5,5.1c-2.6,1.2-5.7,1.7-9.3,1.7
			c-3.3,0-6.2-0.6-8.8-1.7c-2.6-1.1-4.8-2.6-6.6-4.6s-3.2-4.3-4.1-7c-1-2.7-1.4-5.6-1.4-8.8s0.5-6.2,1.6-8.8c1-2.7,2.5-5,4.4-7
			c1.9-1.9,4.2-3.5,6.8-4.5c2.6-1.1,5.5-1.6,8.7-1.6c1.6,0,3.1,0.1,4.6,0.4c1.4,0.3,2.8,0.7,4,1.2s2.4,1.1,3.4,1.8s2,1.5,2.8,2.3
			l-3.4,4.5c-0.2,0.3-0.5,0.5-0.8,0.8s-0.7,0.3-1.2,0.3c-0.4,0-0.7-0.1-1-0.2c-0.3-0.2-0.6-0.3-1-0.6c-0.4-0.2-0.7-0.5-1.2-0.7
			c-0.4-0.3-0.9-0.5-1.5-0.7s-1.3-0.4-2-0.6c-0.8-0.2-1.7-0.2-2.7-0.2c-1.7,0-3.2,0.3-4.5,0.9c-1.4,0.6-2.5,1.5-3.5,2.7
			s-1.8,2.6-2.3,4.3s-0.8,3.6-0.8,5.8s0.3,4.2,0.9,5.9c0.6,1.7,1.4,3.2,2.5,4.3c1,1.2,2.2,2.1,3.6,2.7c1.4,0.6,2.9,0.9,4.4,0.9
			c0.9,0,1.7,0,2.5-0.1c0.7-0.1,1.4-0.2,2.1-0.4c0.6-0.2,1.3-0.5,1.8-0.8c0.6-0.3,1.2-0.8,1.7-1.3c0.2-0.2,0.5-0.4,0.8-0.5
			C233.9,207.9,234.2,207.8,234.5,207.8z"/>
		<path d="M103.1,196.6h15.3v18.2c-2.2,1.6-4.6,2.8-7,3.5c-2.5,0.7-5.1,1.1-7.8,1.1c-3.5,0-6.8-0.6-9.7-1.7
			c-2.9-1.1-5.4-2.6-7.5-4.6s-3.7-4.3-4.8-7c-1.1-2.7-1.7-5.6-1.7-8.8s0.5-6.2,1.6-8.8c1.1-2.7,2.6-5,4.6-7c2-1.9,4.4-3.5,7.2-4.5
			c2.8-1.1,5.9-1.6,9.4-1.6c1.8,0,3.5,0.1,5,0.4c1.6,0.3,3,0.7,4.4,1.2c1.3,0.5,2.5,1.1,3.6,1.8s2.1,1.5,3,2.3l-2.9,4.4
			c-0.5,0.7-1,1.1-1.8,1.3c-0.7,0.2-1.5,0-2.3-0.5s-1.5-0.9-2.2-1.2s-1.4-0.6-2.1-0.8s-1.5-0.4-2.3-0.5s-1.7-0.1-2.7-0.1
			c-1.9,0-3.6,0.3-5,1c-1.5,0.7-2.8,1.6-3.8,2.8c-1.1,1.2-1.9,2.6-2.4,4.3c-0.6,1.7-0.9,3.6-0.9,5.6c0,2.3,0.3,4.3,0.9,6.1
			s1.5,3.3,2.7,4.5s2.5,2.2,4.1,2.8s3.4,1,5.3,1c1.2,0,2.3-0.1,3.3-0.4c1-0.2,1.9-0.6,2.8-0.9V204h-4.3c-0.6,0-1.1-0.2-1.5-0.5
			s-0.5-0.8-0.5-1.3C103.1,202.2,103.1,196.6,103.1,196.6z"/>
		<path d="M180.3,211.4v8h-25.9v-43h10v35H180.3z"/>
	</g>
</g>
</svg>
